<svg height="512" width="512" viewBox="0 0 512 512" xmlns="http://www.w3.org/2000/svg">
    <path d="m403.62 308.043-136.747-201.876c-2.809-4.146-7.491-6.629-12.498-6.629-5.008 0-9.689 2.483-12.498 6.629l-136.747 201.876z"/>
    <path d="m422.973 338.043h-337.195c-4.113 0-8.047 1.678-10.894 4.646s-4.359 6.969-4.188 11.078c1.672 40.099 18.61 77.629 47.693 105.676 29.182 28.142 67.421 43.641 107.675 43.641h56.622c40.254 0 78.493-15.499 107.675-43.641 29.085-28.047 46.023-65.577 47.694-105.676.171-4.109-1.341-8.11-4.188-11.078s-6.781-4.646-10.894-4.646z"/>
    <path d="m291.71 89.342 84.748 125.111h93.657l-134.191-198.102c-2.809-4.146-7.49-6.629-12.498-6.629-5.007 0-9.689 2.483-12.498 6.629l-38.57 56.94c7.728 3.36 14.479 8.857 19.352 16.051z"/>
    <path d="m467.547 362.614c27.089-27.666 42.832-63.86 44.44-102.437.171-4.109-1.341-8.11-4.189-11.078-2.847-2.968-6.781-4.646-10.894-4.646h-100.124l46.298 68.349c4.606 2.292 8.834 5.361 12.439 9.12 8.46 8.821 13.02 20.882 12.512 33.091-.106 2.544-.274 5.077-.482 7.601z"/>
    <path d="m217.04 89.343c4.828-7.127 11.496-12.591 19.133-15.96l-39.178-57.837c-2.809-4.146-7.491-6.629-12.498-6.629-5.008 0-9.689 2.483-12.498 6.629l-134.735 198.907h95.028z"/>
    <path d="m15.095 244.453c-4.113 0-8.047 1.678-10.894 4.646s-4.36 6.969-4.189 11.078c1.537 36.871 15.991 71.564 40.917 98.716-.081-1.29-.154-2.582-.208-3.877-.508-12.212 4.052-24.272 12.51-33.092 3.606-3.759 7.833-6.828 12.438-9.12l46.3-68.35h-96.874z"/>
</svg>