<svg xmlns="http://www.w3.org/2000/svg" viewBox="0 0 459.943 459.943" style="enable-background:new 0 0 459.943 459.943;">
    <path d="M459.668,76.952c1.184-4.754-1.56-9.592-6.25-11.008L409.281,52.62
		c-5.288-1.597-10.828,1.842-11.721,7.327c-3.98,24.457-9.95,45.45-15.841,62.114c-4.027,11.393-8.016,20.757-11.309,27.822
		c-8.274-2.923-16.789-4.546-25.344-4.546c-20.498,0-41.216,9.291-59.345,32.195c-11.573,14.621-58.154,130.555-114.494,155.38
		c-26.671,11.752-53.043,15.905-76.988,15.905c-31.202,0-58.286-7.048-76.582-13.52c-8.393-2.969-15.728,6.633-10.577,13.944
		c19.93,28.288,63.431,72.698,145.863,86.544c11.378,1.911,22.698,2.813,33.872,2.813c98.388,0,186.652-69.763,225.763-134.208
		c24.371-40.158,34.048-86.894,4.914-121.502c5.576-8.598,10.623-18.04,15.143-27.702
		C446.904,124.689,455.916,92.024,459.668,76.952z"/>
</svg>
